<svg xmlns="http://www.w3.org/2000/svg" viewBox="0 0 512 512">
  <rect width="512" height="512" rx="112" fill="#3d2b1f"/>
  <defs>
    <clipPath id="cup-body">
      <rect x="152" y="210" width="208" height="175" rx="24"/>
    </clipPath>
  </defs>
  <!-- whole cup shifted left so the entire artwork (incl. handle) is centered -->
  <g transform="translate(-38 0)">
    <!-- handle -->
    <path d="M360 248 h44 a44 44 0 0 1 0 88 h-44" stroke="#c97b3a" stroke-width="26" fill="none" stroke-linecap="round"/>
    <!-- layered cup body: three coffee-tone bands clipped to the rounded mug -->
    <g clip-path="url(#cup-body)">
      <rect x="152" y="210" width="208" height="59" fill="#e8c79a"/>
      <rect x="152" y="269" width="208" height="58" fill="#c97b3a"/>
      <rect x="152" y="327" width="208" height="58" fill="#6f4423"/>
      <!-- subtle band separators -->
      <line x1="152" y1="269" x2="360" y2="269" stroke="#3d2b1f" stroke-width="3" stroke-opacity="0.22"/>
      <line x1="152" y1="327" x2="360" y2="327" stroke="#3d2b1f" stroke-width="3" stroke-opacity="0.22"/>
    </g>
    <!-- saucer -->
    <rect x="126" y="400" width="260" height="22" rx="11" fill="#c97b3a"/>
    <!-- steam -->
    <path d="M208 170 q14-28 0-52" stroke="#faf7f2" stroke-width="14" fill="none" stroke-linecap="round"/>
    <path d="M256 158 q14-28 0-52" stroke="#faf7f2" stroke-width="14" fill="none" stroke-linecap="round"/>
    <path d="M304 170 q14-28 0-52" stroke="#faf7f2" stroke-width="14" fill="none" stroke-linecap="round"/>
  </g>
</svg>
